<svg xmlns="http://www.w3.org/2000/svg" width="17.176" height="13.194" viewBox="0 0 17.176 13.194">
  <g id="Group_19" data-name="Group 19" transform="translate(-25.986 -29.681)">
    <path id="Path_9" data-name="Path 9" d="M32.967,35.329H31.089a.467.467,0,0,1,0-.073c.25-1.281.485-2.562.757-3.842a2.376,2.376,0,0,1,2.146-1.733q4.667,0,9.333,0h.155l-.367,1.885H34.3a.63.63,0,0,0-.718.595l-.577,2.968Z" transform="translate(-2.92)" fill="#3d425a"/>
    <path id="Path_10" data-name="Path 10" d="M42.58,47.324h1.879c-.005.048-.006.09-.015.133-.245,1.253-.476,2.506-.74,3.759a2.373,2.373,0,0,1-2.146,1.755q-4.683,0-9.365,0h-.126l.367-1.885h8.808a.632.632,0,0,0,.725-.605l.577-2.968Z" transform="translate(-3.48 -10.097)" fill="#3d425a"/>
    <path id="Path_11" data-name="Path 11" d="M37.211,47.325l-.366,1.881H29.313l-.362,1.862-2.965-3.743Z" transform="translate(0 -10.098)" fill="#3d425a"/>
    <path id="Path_12" data-name="Path 12" d="M51.123,37.873H39.9l.366-1.881h7.533l.362-1.864Z" transform="translate(-7.961 -2.545)" fill="#3d425a"/>
  </g>
</svg>
