<svg width="24" height="24" viewBox="0 0 24 24" fill="none" xmlns="http://www.w3.org/2000/svg">
<path d="M12 2.9375C16.9707 2.9375 21 7.01477 21 12.0446V15.4726C21 15.8109 20.9069 16.1425 20.731 16.4303C20.5552 16.7181 20.3037 16.9506 20.0046 17.1018L17.4 18.4196V19.3304C17.4 20.0272 17.1369 20.6978 16.6644 21.2048C16.192 21.7119 15.5459 22.0171 14.8584 22.0579L14.655 22.0625C14.6748 21.9633 14.688 21.8629 14.6946 21.762L14.7 21.6071V21.1518C14.7001 20.6923 14.5286 20.2497 14.2199 19.9127C13.9111 19.5758 13.4878 19.3694 13.035 19.3349L12.9 19.3304H11.1C10.6459 19.3302 10.2085 19.5038 9.87551 19.8162C9.54252 20.1287 9.33856 20.5569 9.3045 21.0152L9.3 21.1518V21.6071C9.3 21.7629 9.3153 21.9159 9.345 22.0625H9.3C8.58392 22.0625 7.89716 21.7747 7.39081 21.2623C6.88446 20.7499 6.6 20.055 6.6 19.3304V18.4196L3.9954 17.1018C3.69618 16.9505 3.44454 16.7179 3.26872 16.4299C3.0929 16.142 2.99984 15.8101 3 15.4717L3 12.0446C3 7.01477 7.0293 2.9375 12 2.9375ZM12 4.75893C10.1294 4.75895 8.33227 5.49564 6.98907 6.81302C5.64586 8.13039 4.86206 9.92504 4.8036 11.817L4.8 12.0446V15.4726L8.4 17.294V18.7429L8.4675 18.6664C9.10497 17.974 9.98414 17.5604 10.9182 17.5135L11.1 17.5089L12.9657 17.5098L13.1664 17.5189C14.0655 17.5863 14.8674 17.9834 15.4614 18.5909L15.6 18.7429L15.6 17.294L19.2 15.4726V12.0446C19.2 10.1124 18.4414 8.2592 17.0912 6.89286C15.7409 5.52653 13.9096 4.75893 12 4.75893ZM8.4 11.1339C8.87739 11.1339 9.33523 11.3258 9.67279 11.6674C10.0104 12.009 10.2 12.4723 10.2 12.9554C10.2 13.4384 10.0104 13.9017 9.67279 14.2433C9.33523 14.5849 8.87739 14.7768 8.4 14.7768C7.92261 14.7768 7.46477 14.5849 7.12721 14.2433C6.78964 13.9017 6.6 13.4384 6.6 12.9554C6.6 12.4723 6.78964 12.009 7.12721 11.6674C7.46477 11.3258 7.92261 11.1339 8.4 11.1339ZM15.6 11.1339C16.0774 11.1339 16.5352 11.3258 16.8728 11.6674C17.2104 12.009 17.4 12.4723 17.4 12.9554C17.4 13.4384 17.2104 13.9017 16.8728 14.2433C16.5352 14.5849 16.0774 14.7768 15.6 14.7768C15.1226 14.7768 14.6648 14.5849 14.3272 14.2433C13.9896 13.9017 13.8 13.4384 13.8 12.9554C13.8 12.4723 13.9896 12.009 14.3272 11.6674C14.6648 11.3258 15.1226 11.1339 15.6 11.1339Z" fill="#737278"/>
</svg>
