<svg width="20" height="20" viewBox="0 0 20 20" fill="none" xmlns="http://www.w3.org/2000/svg">
<path d="M13.9531 12.2957L14.067 12.414L14.1821 12.2957C14.3172 12.1561 14.4777 12.0453 14.6543 11.9698C14.8308 11.8942 15.0201 11.8553 15.2112 11.8553C15.4024 11.8553 15.5916 11.8942 15.7682 11.9698C15.9448 12.0453 16.1052 12.1561 16.2404 12.2957C16.3755 12.4353 16.4827 12.6011 16.5559 12.7835C16.629 12.9659 16.6667 13.1614 16.6667 13.3589C16.6667 13.5563 16.629 13.7518 16.5559 13.9343C16.4827 14.1167 16.3755 14.2824 16.2404 14.4221L14.067 16.6667L11.8948 14.4221C11.6219 14.1401 11.4685 13.7576 11.4685 13.3589C11.4685 12.9601 11.6219 12.5777 11.8948 12.2957C12.1678 12.0137 12.538 11.8553 12.924 11.8553C13.31 11.8553 13.6802 12.0137 13.9531 12.2957ZM10.1748 11.1871V12.5236C9.14549 12.5236 8.15831 12.946 7.43046 13.6979C6.70261 14.4498 6.29371 15.4696 6.29371 16.533H5C5.00002 15.1441 5.52326 13.8098 6.45896 12.8125C7.39465 11.8151 8.66934 11.2332 10.0131 11.1898L10.1748 11.1871ZM10.1748 2.5C12.3192 2.5 14.056 4.29422 14.056 6.50943C14.0563 7.54689 13.6673 8.54408 12.9706 9.29132C12.2739 10.0386 11.3239 10.4776 10.3204 10.5162L10.1748 10.5189C8.03051 10.5189 6.29371 8.72465 6.29371 6.50943C6.29335 5.47197 6.6824 4.47478 7.37907 3.72755C8.07573 2.98031 9.02572 2.54124 10.0293 2.50267L10.1748 2.5ZM10.1748 3.83648C8.74528 3.83648 7.58742 5.03263 7.58742 6.50943C7.58742 7.98624 8.74528 9.18239 10.1748 9.18239C11.6044 9.18239 12.7622 7.98624 12.7622 6.50943C12.7622 5.03263 11.6044 3.83648 10.1748 3.83648Z" fill="#737278"/>
</svg>
