<svg id="activity-outline" xmlns="http://www.w3.org/2000/svg" width="24" height="24" viewBox="0 0 24 24">
  <rect id="Rectangle" width="24" height="24" transform="translate(24) rotate(90)" fill="currentColor" opacity="0"/>
  <path id="Path" d="M12.33,15.992h-.21a2,2,0,0,1-1.76-1.58L7.68,1.992l-2.76,6.4a1,1,0,0,1-.92.6H1a1,1,0,0,1,0-2H3.34L5.85,1.2a2,2,0,0,1,3.79.38l2.68,12.41,2.76-6.38a1,1,0,0,1,.92-.62h3a1,1,0,0,1,0,2H16.66l-2.51,5.79A2,2,0,0,1,12.33,15.992Z" transform="translate(2 4.008)" fill="currentColor"/>
</svg>
