<svg xmlns="http://www.w3.org/2000/svg" width="22.5" height="22.5" viewBox="0 0 22.5 22.5">
  <path id="Path_16" data-name="Path 16" d="M15.25,20.875a2.813,2.813,0,1,1-2.812,2.813,2.821,2.821,0,0,1,2.813-2.812m0-8.437a2.813,2.813,0,1,1-2.812,2.813,2.821,2.821,0,0,1,2.813-2.812M15.25,4a2.813,2.813,0,1,1-2.812,2.813A2.821,2.821,0,0,1,15.25,4M6.813,20.875A2.813,2.813,0,1,1,4,23.688a2.821,2.821,0,0,1,2.813-2.812m0-8.437A2.813,2.813,0,1,1,4,15.25a2.821,2.821,0,0,1,2.813-2.812M6.813,4A2.813,2.813,0,1,1,4,6.813,2.821,2.821,0,0,1,6.813,4M23.688,20.875a2.813,2.813,0,1,1-2.812,2.813,2.821,2.821,0,0,1,2.813-2.812m0-8.437a2.813,2.813,0,1,1-2.812,2.813,2.821,2.821,0,0,1,2.813-2.812m0-8.437a2.813,2.813,0,1,1-2.812,2.813A2.821,2.821,0,0,1,23.688,4Z" transform="translate(-4 -4)" fill="currentColor"/>
</svg>
