<svg xmlns="http://www.w3.org/2000/svg" width="40.557" height="40.712" viewBox="2.5 4 35.557 35.712">
  <g id="Group_331" data-name="Group 331" transform="translate(12240.385 6783.891)">
    <g id="Group_5" data-name="Group 5" transform="translate(-12240.385 -6783.891)">
      <g id="award-outline" transform="matrix(0.875, 0.485, -0.485, 0.875, 14.589, 0)">
        <path id="Rectangle" d="M0,0,29.192.494l.5,29.6L.5,29.6Z" transform="translate(0 0)" opacity="0"/>
        <path id="Shape" d="M.493,24.3A1.3,1.3,0,0,1,.033,23L2.64,11.962A7.718,7.718,0,0,1,.966,7.282,6.991,6.991,0,0,1,8,0a7.586,7.586,0,0,1,7.275,7.528,7.29,7.29,0,0,1-1.486,4.6l2.937,11.154a1.25,1.25,0,0,1-.206,1.077,1.134,1.134,0,0,1-.961.445,1.081,1.081,0,0,1-.611-.17L8.11,20.643,1.819,24.4a1.127,1.127,0,0,1-.607.164A1.2,1.2,0,0,1,.493,24.3Z" transform="translate(6.645 2.744)" fill="#fff"/>
      </g>
    </g>
    <path id="check-decagram" d="M33.892,17.179l-3.648-4.156.508-5.5-5.4-1.226L22.529,1.54,17.446,3.723,12.363,1.54,9.537,6.294,4.14,7.505l.508,5.5L1,17.179l3.648,4.156L4.14,26.852l5.4,1.226,2.826,4.754,5.083-2.2,5.083,2.183,2.826-4.754,5.4-1.226-.508-5.5,3.648-4.156M14.456,24.654l-5.98-5.98,2.108-2.108,3.872,3.857,9.853-9.853,2.108,2.123Z" transform="translate(-12237.655 -6779.469)" fill="#447af5"/>
  </g>
</svg>
