<svg width="24" height="24" viewBox="0 0 24 24" fill="none"
    xmlns="http://www.w3.org/2000/svg">
    <path d="M0 12C0 5.37258 5.37258 0 12 0C18.6274 0 24 5.37258 24 12C24 18.6274 18.6274 24 12 24C5.37258 24 0 18.6274 0 12Z" fill="#09090B" fill-opacity="0.4"/>
    <path d="M16.0058 8.93213C16.2648 8.67315 16.2648 8.25326 16.0058 7.99428C15.7468 7.7353 15.3269 7.7353 15.068 7.99428L12 11.0622L8.93213 7.99428C8.67315 7.7353 8.25326 7.7353 7.99428 7.99428C7.7353 8.25326 7.7353 8.67315 7.99428 8.93213L11.0622 12L7.99428 15.068C7.7353 15.3269 7.7353 15.7468 7.99428 16.0058C8.25326 16.2648 8.67315 16.2648 8.93213 16.0058L12 12.9379L15.068 16.0058C15.3269 16.2648 15.7468 16.2648 16.0058 16.0058C16.2648 15.7468 16.2648 15.3269 16.0058 15.068L12.9379 12L16.0058 8.93213Z" fill="#FF918F"/>
    <path d="M12 23C5.92487 23 1 18.0751 1 12H-1C-1 19.1797 4.8203 25 12 25V23ZM23 12C23 18.0751 18.0751 23 12 23V25C19.1797 25 25 19.1797 25 12H23ZM12 1C18.0751 1 23 5.92487 23 12H25C25 4.8203 19.1797 -1 12 -1V1ZM12 -1C4.8203 -1 -1 4.8203 -1 12H1C1 5.92487 5.92487 1 12 1V-1Z" fill="#FF918F"/>
</svg>
