<svg width="32" height="32" viewBox="0 0 32 32" fill="none" xmlns="http://www.w3.org/2000/svg">
<path d="M16.0003 29.3334C8.63633 29.3334 2.66699 23.3641 2.66699 16.0001C2.66699 8.63608 8.63633 2.66675 16.0003 2.66675C23.3643 2.66675 29.3337 8.63608 29.3337 16.0001C29.3337 23.3641 23.3643 29.3334 16.0003 29.3334ZM16.0003 26.6667C18.8293 26.6667 21.5424 25.5429 23.5428 23.5426C25.5432 21.5422 26.667 18.8291 26.667 16.0001C26.667 13.1711 25.5432 10.458 23.5428 8.45761C21.5424 6.45722 18.8293 5.33341 16.0003 5.33341C13.1713 5.33341 10.4582 6.45722 8.45785 8.45761C6.45747 10.458 5.33366 13.1711 5.33366 16.0001C5.33366 18.8291 6.45747 21.5422 8.45785 23.5426C10.4582 25.5429 13.1713 26.6667 16.0003 26.6667ZM16.0003 14.1147L19.771 10.3427L21.6577 12.2294L17.8857 16.0001L21.6577 19.7707L19.771 21.6574L16.0003 17.8854L12.2297 21.6574L10.343 19.7707L14.115 16.0001L10.343 12.2294L12.2297 10.3427L16.0003 14.1147Z" fill="#888DAB"/>
</svg>
