<svg width="20" height="20" viewBox="0 0 20 20" fill="none" xmlns="http://www.w3.org/2000/svg">
<path fill-rule="evenodd" clip-rule="evenodd" d="M6.36 11.96H4.96C4.80536 11.96 4.68 11.8346 4.68 11.68V4.96C4.68 4.80536 4.80536 4.68 4.96 4.68H11.68C11.8346 4.68 11.96 4.80536 11.96 4.96V6.36H8.32C7.23752 6.36 6.36 7.23752 6.36 8.32V11.96ZM6.36 13.64H4.96C3.87752 13.64 3 12.7625 3 11.68V4.96C3 3.87752 3.87752 3 4.96 3H11.68C12.7625 3 13.64 3.87752 13.64 4.96V6.36H15.04C16.1225 6.36 17 7.23752 17 8.32V15.04C17 16.1225 16.1225 17 15.04 17H8.32C7.23752 17 6.36 16.1225 6.36 15.04V13.64ZM15.32 15.04C15.32 15.1947 15.1947 15.32 15.04 15.32H8.32C8.16536 15.32 8.04 15.1947 8.04 15.04V8.32C8.04 8.16536 8.16536 8.04 8.32 8.04H15.04C15.1947 8.04 15.32 8.16536 15.32 8.32V15.04Z" fill="#737278"/>
</svg>
