<svg width="20" height="20" viewBox="0 0 20 20" fill="none" xmlns="http://www.w3.org/2000/svg">
<path d="M16.6666 13.3246V7.50847C16.6664 7.3181 16.6153 7.13112 16.5185 6.96613C16.4217 6.80114 16.2826 6.6639 16.1149 6.56806L10.8371 3.5551C10.5828 3.40988 10.2939 3.33337 9.99963 3.33337C9.7054 3.33337 9.41642 3.40988 9.16213 3.5551L3.88505 6.56806C3.71737 6.6639 3.57821 6.80114 3.48141 6.96613C3.38461 7.13112 3.33355 7.3181 3.33331 7.50847V13.3246C3.33343 13.5151 3.38443 13.7022 3.48124 13.8673C3.57804 14.0324 3.71727 14.1698 3.88505 14.2657L9.16283 17.2786C9.41718 17.4237 9.70613 17.5 10.0003 17.5C10.2945 17.5 10.5835 17.4237 10.8378 17.2786L16.1156 14.2657C16.2833 14.1697 16.4223 14.0323 16.519 13.8672C16.6157 13.7021 16.6666 13.515 16.6666 13.3246Z" stroke="white" stroke-width="1.5" stroke-linecap="round" stroke-linejoin="round"/>
<path d="M9.99998 10.8334L3.33331 7.08337L9.99998 3.33337L16.6666 7.08337L9.99998 10.8334ZM9.99998 10.8334V17.5" stroke="white" stroke-width="1.5" stroke-linecap="round" stroke-linejoin="round"/>
</svg>
