<svg id="eye-outline" xmlns="http://www.w3.org/2000/svg" width="24" height="24" viewBox="0 0 24 24">
  <g id="eye-outline-2" data-name="eye-outline">
    <rect id="Rectangle" width="24" height="24" opacity="0"/>
    <path id="Shape" d="M10.024,14C4.134,14,.764,8.594.134,7.5a1,1,0,0,1,0-1C1,5,4.2.144,9.734,0c5.98-.18,9.5,5.39,10.139,6.5a1,1,0,0,1,0,1c-.859,1.5-4.07,6.36-9.6,6.5Z" transform="translate(1.996 4.996)" fill="currentColor" opacity="0.4"/>
    <path id="Shape-2" data-name="Shape" d="M0,3.5A3.5,3.5,0,1,1,3.5,7,3.5,3.5,0,0,1,0,3.5Z" transform="translate(8.5 8.5)" fill="currentColor"/>
  </g>
</svg>
