<svg id="flag-outline" xmlns="http://www.w3.org/2000/svg" width="24" height="24" viewBox="0 0 24 24">
  <g id="flag-outline-2" data-name="flag-outline">
    <path id="Path" d="M24,24H0V0" fill="currentColor" opacity="0"/>
    <path id="Shape" d="M0,17V1.86a1,1,0,0,1,.3-.72C.5,1,1.61,0,4.5,0A10.14,10.14,0,0,1,8.37.93a8.521,8.521,0,0,0,3.13.78,7.555,7.555,0,0,0,2.17-.28,1.79,1.79,0,0,1,1.6.25A1.769,1.769,0,0,1,16,3.11v8.64a1.742,1.742,0,0,1-1,1.55,7.667,7.667,0,0,1-3.5.7,10.158,10.158,0,0,1-3.87-.931A8.538,8.538,0,0,0,4.5,12.29,6.273,6.273,0,0,0,2,12.7V17a1,1,0,0,1-2,0Z" transform="translate(4 3)" fill="currentColor" />
  </g>
</svg>
