<svg xmlns="http://www.w3.org/2000/svg" width="20.085" height="20.103" viewBox="0 0 20.085 20.103">
  <path id="gavel" d="M2.3,20.28l9.6-9.6L10.5,9.26l-.72.71a1,1,0,0,1-1.41,0l-.71-.71a1,1,0,0,1,0-1.41l5.66-5.66a1,1,0,0,1,1.41,0l.71.71a1,1,0,0,1,0,1.41L14.73,5l1.42,1.43a1,1,0,0,1,1.41,0,1.008,1.008,0,0,1,0,1.42l1.41,1.41.71-.71a1.008,1.008,0,0,1,1.42,0l.7.71a1.008,1.008,0,0,1,0,1.42l-5.65,5.65a1.008,1.008,0,0,1-1.42,0l-.7-.7a.99.99,0,0,1,0-1.42l.7-.71-1.41-1.41L3.71,21.7a1,1,0,0,1-1.41,0,1.008,1.008,0,0,1,0-1.42M20,19a2,2,0,0,1,2,2v1H12V21a2,2,0,0,1,2-2Z" transform="translate(-2.007 -1.898)" fill="#9c9eac"/>
</svg>
