<svg id="Navigation_Desktop_MainMenu" data-name="Navigation/Desktop/MainMenu" xmlns="http://www.w3.org/2000/svg" width="205.49" height="30.849" viewBox="0 0 205.49 30.849">
  <g id="Navigation_MainMenu" data-name="Navigation/MainMenu" transform="translate(-0.5)">
    <g id="Logo" transform="translate(0.5)">
      <g id="Group_21" data-name="Group 21" transform="translate(-28.5 6.5)">
        <g id="Group_4" data-name="Group 4" transform="translate(2.514 -64.181)">
          <g id="Group_2" data-name="Group 2" transform="translate(0 28)">
            <g id="Group_1" data-name="Group 1">
              <path id="Path_1" data-name="Path 1" d="M90.477,34.952a2.374,2.374,0,0,1,2.535,2.6,4.261,4.261,0,0,1-.086.846l-2.221,11.6c-1,5.013-3.39,7.207-7.947,7.207H74.3l.769-4.011h6.864c1.225,0,2.221-.157,2.877-1.63H81.163c-3.873,0-5.5-2.507-5.5-6.079a13.923,13.923,0,0,1,.285-2.82c1-5.014,2.449-7.709,7.861-7.709Zm-3.618,5.954a4.434,4.434,0,0,0,.086-.752c0-.627-.314-.815-1.2-.815H84.724c-2.108,0-2.735,1.943-3.106,3.949a8.1,8.1,0,0,0-.2,1.692c0,1.159.342,2.193,1.681,2.193h2.563Z" fill="#fff"/>
              <path id="Path_2" data-name="Path 2" d="M106.143,34.952c3.048,0,4.444,1.755,4.444,4.356a6.79,6.79,0,0,1-.114,1.285l-1.453,7.52c-.427,2.225-1.538,3.447-3.816,3.447H96.431c-2.307,0-3.389-1.566-3.389-4.042a14.594,14.594,0,0,1,.2-2.162c.627-3.134,1.481-4.2,4.643-4.2h6.892l.057-.314a1.647,1.647,0,0,0,.029-.407c0-.815-.484-1.222-1.425-1.222h-7.86l.826-4.262Zm-6.066,10.09a1.19,1.19,0,0,0-1.282,1,4.3,4.3,0,0,0-.057.533.815.815,0,0,0,.8.909h2.876c.883,0,1.168-.282,1.367-1.254l.257-1.191Z" fill="#fff"/>
              <path id="Path_3" data-name="Path 3" d="M113.066,38.4c.485-2.507,1.766-3.447,3.788-3.447h13.672c2.962,0,4.9,1.692,4.9,4.669a10.033,10.033,0,0,1-.143,1.6L133.289,51.56h-5.583l1.709-8.774a7.977,7.977,0,0,0,.171-1.535c0-1.473-.712-1.912-2.535-1.912L124.687,51.56h-5.582l2.363-12.221h-1.879c-.883,0-1.168.282-1.368,1.254L116.086,51.56H110.5Z" fill="#fff"/>
              <path id="Path_4" data-name="Path 4" d="M141.722,51.56c-3.674,0-5.326-1.5-5.326-5.108a18.363,18.363,0,0,1,.427-3.916c1.481-7.145,3.3-7.772,9.854-7.772,4.672,0,7.121.815,7.121,4.575a13.132,13.132,0,0,1-.285,2.758c-.427,1.88-1.2,3.133-3.161,3.133H142.12a3.027,3.027,0,0,0-.085.659c0,1.1.741,1.41,2.449,1.41h7.32l-.826,4.261Zm5.269-10.215c.911,0,1.025-.408,1.111-.784a2.828,2.828,0,0,0,.028-.47c0-.971-1.481-1.065-2.279-1.065-1.708,0-2.62.251-2.99,2.319Z" fill="#fff"/>
              <path id="Path_5" data-name="Path 5" d="M153.8,47.111h8.231c.2,0,.542-.032.542-.377,0-.532-1.14-.845-1.738-1.1l-2.763-1.16c-2.05-.846-3.133-1.817-3.133-3.979a8.849,8.849,0,0,1,.143-1.316c.6-3.134,2.022-4.231,4.87-4.231h10.31l-.826,4.262h-8.2c-.228,0-.969-.031-.969.313,0,.47.4.47,1.282.846l3.276,1.41c2.193,1,3.617,1.881,3.617,4.388a8.876,8.876,0,0,1-.143,1.316c-.6,3.165-1.994,4.073-4.842,4.073h-10.51Z" fill="#fff"/>
              <path id="Path_6" data-name="Path 6" d="M176.558,44.51c0,.219.057.5.2.5s.256-.313.341-.47l3.76-8.022c.285-.721,1.025-1.755,3.418-1.755,2.449,0,2.877,1.034,2.962,1.755l.683,8.022c0,.157.029.47.171.47s.285-.282.371-.5l4.13-9.558h5.525l-6.038,13.475c-.826,1.88-1.766,3.321-4.529,3.321-2.734,0-3.446-1.222-3.531-2.412l-.57-7.239c-.029-.251-.029-.5-.143-.5s-.2.25-.313.5l-3.418,7.239c-.541,1.19-1.481,2.412-4.215,2.412-2.791,0-3.361-1.441-3.446-3.321l-.855-13.475h5.07Z" fill="#fff"/>
              <path id="Path_7" data-name="Path 7" d="M209.173,34.952c3.047,0,4.443,1.755,4.443,4.356a6.709,6.709,0,0,1-.114,1.285l-1.452,7.52c-.428,2.225-1.538,3.447-3.817,3.447h-8.772c-2.307,0-3.389-1.566-3.389-4.042a14.594,14.594,0,0,1,.2-2.162c.626-3.134,1.481-4.2,4.642-4.2h6.893l.057-.314a1.7,1.7,0,0,0,.028-.407c0-.815-.484-1.222-1.424-1.222h-7.861l.826-4.262Zm-6.067,10.09a1.189,1.189,0,0,0-1.281,1,4.3,4.3,0,0,0-.057.533.814.814,0,0,0,.8.909h2.877c.883,0,1.167-.282,1.367-1.254l.257-1.191Z" fill="#fff"/>
              <path id="Path_8" data-name="Path 8" d="M225.95,34.952c3.874,0,5.526,2.538,5.526,6.111a16.931,16.931,0,0,1-.256,2.82c-.855,5.045-2.535,7.677-7.919,7.677h-4.214l-1.026,5.327h-5.554l3.56-18.488c.428-2.225,1.51-3.447,3.788-3.447Zm-6.009,12.221H222.5c1.937,0,2.706-2.005,3.019-3.6a15,15,0,0,0,.2-2.194c0-1.159-.37-2.037-1.822-2.037h-1.026c-1.139,0-1.48.314-1.708,1.567Z" fill="#fff"/>
            </g>
          </g>
          <g id="Group_3" data-name="Group 3" transform="translate(0 28)">
            <path id="Path_9" data-name="Path 9" d="M35.479,42.886h-4.39a1.091,1.091,0,0,1,.006-.17c.584-2.994,1.134-5.989,1.769-8.982a5.554,5.554,0,0,1,5.018-4.051q10.911-.006,21.821,0h.363l-.857,4.408H38.6a1.473,1.473,0,0,0-1.678,1.391q-.675,3.469-1.349,6.939Z" fill="#fff"/>
            <path id="Path_10" data-name="Path 10" d="M56.648,47.324h4.393c-.012.112-.015.211-.034.31-.573,2.93-1.112,5.86-1.731,8.789a5.548,5.548,0,0,1-5.018,4.1q-10.95.009-21.9,0h-.295l.857-4.408H53.517a1.478,1.478,0,0,0,1.7-1.415q.675-3.47,1.349-6.939Z" fill="#fff"/>
            <path id="Path_11" data-name="Path 11" d="M52.232,47.325l-.855,4.4H33.765l-.846,4.354-6.933-8.751Z" fill="#fff"/>
            <path id="Path_12" data-name="Path 12" d="M66.145,42.885H39.9l.855-4.4H58.364l.847-4.359Z" fill="#fff"/>
          </g>
        </g>
      </g>
    </g>
  </g>
</svg>
