<svg xmlns="http://www.w3.org/2000/svg" width="14.417" height="18.208" viewBox="0 0 14.417 18.208">
  <path id="Shape" d="M1.863,15.9C.341,13.643-.82,9.516.742,6.729A4.317,4.317,0,0,1,4.4,4.446c1.143-.021,2.223.793,2.921.793S9.336,4.26,10.715,4.4a4.1,4.1,0,0,1,3.237,1.8,4.131,4.131,0,0,0-1.911,3.467,4.006,4.006,0,0,0,2.376,3.683,10.2,10.2,0,0,1-1.227,2.589c-.739,1.11-1.5,2.214-2.709,2.237-1.187.023-1.568-.724-2.923-.724s-1.779.7-2.9.746H4.6C3.463,18.208,2.593,16.99,1.863,15.9ZM7.185,4.2a3.885,3.885,0,0,1,.941-2.817A3.931,3.931,0,0,1,10.733,0a4.088,4.088,0,0,1-.921,2.908A3.331,3.331,0,0,1,7.365,4.2Q7.275,4.2,7.185,4.2Z" transform="translate(0)" fill="#fff"/>
</svg>
