<svg width="20" height="20" viewBox="0 0 20 20" fill="none"
    xmlns="http://www.w3.org/2000/svg">
    <path d="M16 4.16663C16.1768 4.16663 16.3464 4.23491 16.4714 4.35646C16.5964 4.47802 16.6667 4.64287 16.6667 4.81477V9.35181H15.3333V6.46292C15.3333 5.91064 14.8856 5.46292 14.3333 5.46292H5.66668C5.11439 5.46292 4.66668 5.91064 4.66668 6.46292V13.537C4.66668 14.0893 5.11439 14.537 5.66668 14.537H8.66668V15.8333H4.00001C3.8232 15.8333 3.65363 15.765 3.52861 15.6435C3.40358 15.5219 3.33334 15.357 3.33334 15.1851V4.81477C3.33334 4.64287 3.40358 4.47802 3.52861 4.35646C3.65363 4.23491 3.8232 4.16663 4.00001 4.16663H16ZM16 10.6481C16.1768 10.6481 16.3464 10.7164 16.4714 10.8379C16.5964 10.9595 16.6667 11.1244 16.6667 11.2963V15.1851C16.6667 15.357 16.5964 15.5219 16.4714 15.6435C16.3464 15.765 16.1768 15.8333 16 15.8333H10.6667C10.4899 15.8333 10.3203 15.765 10.1953 15.6435C10.0702 15.5219 10 15.357 10 15.1851V11.2963C10 11.1244 10.0702 10.9595 10.1953 10.8379C10.3203 10.7164 10.4899 10.6481 10.6667 10.6481H16ZM9.66668 6.75922L8.30468 8.08339L9.80468 9.54172L8.86201 10.4582L7.36201 8.99987L6.00001 10.324V6.75922H9.66668Z" fill="currentColor"/>
</svg>
