<svg id="shopping-bag-outline" xmlns="http://www.w3.org/2000/svg" width="24" height="24" viewBox="0 0 24 24">
  <g id="shopping-bag-outline-2" data-name="shopping-bag-outline">
    <rect id="Rectangle" width="24" height="24" fill="#fff" opacity="0"/>
    <path id="Shape" d="M3,18a3,3,0,0,1-3-3V5.83A3,3,0,0,1,.88,3.71L3.71.88A3,3,0,0,1,5.83,0h6.34a3,3,0,0,1,2.12.88l2.83,2.83A3,3,0,0,1,18,5.83V15a3,3,0,0,1-3,3Z" transform="translate(3 3)" fill="currentColor" opacity="0.4"/>
    <path id="Path" d="M7,0A1,1,0,0,0,6,1,2,2,0,0,1,2,1,1,1,0,0,0,0,1,4,4,0,0,0,8,1,1,1,0,0,0,7,0Z" transform="translate(8 11)" fill="currentColor" />
  </g>
</svg>
