<svg xmlns="http://www.w3.org/2000/svg" width="23.143" height="26.614" viewBox="0 0 23.143 26.614">
  <path id="discord_path" data-name="Path 196" d="M23.141,26.615l-6.016-5.784.695,2.313H2.893A2.865,2.865,0,0,1,0,20.308V2.9A2.866,2.866,0,0,1,2.838,0H20.25a2.866,2.866,0,0,1,2.893,2.838V26.617M11.571,6.715A11.543,11.543,0,0,0,6.249,7.988a9.643,9.643,0,0,1,3.24-1.62l-.231-.231a6.789,6.789,0,0,0-3.7,1.388A18.612,18.612,0,0,0,3.7,15.278a5.19,5.19,0,0,0,4.051,1.964L8.68,16.2a4.673,4.673,0,0,1-2.315-1.62,10.171,10.171,0,0,0,10.646,0A4.675,4.675,0,0,1,14.7,16.2l.81,1.043a5.19,5.19,0,0,0,4.051-1.964,18.612,18.612,0,0,0-1.852-7.753A6.789,6.789,0,0,0,14,6.137l-.231.231a9.643,9.643,0,0,1,3.24,1.62,12.992,12.992,0,0,0-5.439-1.273m-2.43,4.4a1.515,1.515,0,0,1,1.388,1.5,1.435,1.435,0,0,1-1.363,1.5H9.143a1.515,1.515,0,0,1-1.388-1.5,1.609,1.609,0,0,1,1.388-1.5m4.86,0a1.514,1.514,0,0,1,1.388,1.5,1.434,1.434,0,0,1-1.362,1.5H14a1.515,1.515,0,0,1-1.388-1.5,1.435,1.435,0,0,1,1.361-1.506H14Z" transform="translate(0 -0.003)" fill="#fff"/>
</svg>
