<svg xmlns="http://www.w3.org/2000/svg" width="26.013" height="21.163" viewBox="0 0 26.013 21.163">
  <path id="twitter_path" data-name="Path 199" d="M26.011,2.488A12.777,12.777,0,0,1,22.9,3.36,5.159,5.159,0,0,0,25.265.373,15.815,15.815,0,0,1,21.9,1.742,5.176,5.176,0,0,0,17.922,0a5.311,5.311,0,0,0-5.35,5.272v.078A4.255,4.255,0,0,0,12.693,6.6,15.259,15.259,0,0,1,1.741.995,4.9,4.9,0,0,0,.994,3.609a5.594,5.594,0,0,0,2.365,4.48A4.764,4.764,0,0,1,.994,7.467h0A5.35,5.35,0,0,0,5.226,12.7a5.274,5.274,0,0,1-1.369.249,2.723,2.723,0,0,1-1-.125,5.384,5.384,0,0,0,4.978,3.734,10.327,10.327,0,0,1-6.6,2.241A4.233,4.233,0,0,1,0,18.67a13.849,13.849,0,0,0,8.09,2.49A15.045,15.045,0,0,0,23.272,5.976V5.229A9.573,9.573,0,0,0,26.011,2.488Z" transform="translate(0.002 0.002)" fill="#fff"/>
</svg>
