<svg width="24" height="24" viewBox="0 0 24 24" fill="none" xmlns="http://www.w3.org/2000/svg">
<g clip-path="url(#clip0_422:1326)">
<path d="M24 12.0098C24 5.38775 18.6274 0.0195312 12 0.0195312C5.37258 0.0195312 0 5.38775 0 12.0098C0 18.6318 5.37258 24 12 24C18.6274 24 24 18.6318 24 12.0098Z" fill="#737278"/>
<path d="M7.40656 11.0545H5.48634C5.48492 11.0308 5.48492 11.007 5.48634 10.9832C5.74145 9.67855 5.98148 8.37249 6.25854 7.06781C6.45879 6.12629 7.50257 5.30127 8.45308 5.30127C11.6269 5.30127 14.8008 5.30127 17.9746 5.30127H18.1324L17.7593 7.21993H8.76031C8.32141 7.21993 8.11293 7.39124 8.02789 7.82568L7.43948 10.8462L7.40656 11.0545Z" fill="#09090B"/>
<path d="M16.6373 12.9896H18.5576C18.5576 13.039 18.5507 13.0814 18.5425 13.1267C18.2928 14.404 18.0569 15.6812 17.7867 16.964C17.5837 17.9233 16.5523 18.7456 15.5922 18.7456C12.4055 18.7456 9.22026 18.7456 6.03635 18.7456H5.90742L6.28187 16.8269H15.2685C15.7184 16.8269 15.9214 16.657 16.0078 16.2089C16.2053 15.2038 16.4019 14.1956 16.5976 13.1842L16.6373 12.9896Z" fill="#09090B"/>
<path d="M14.7103 12.9896L14.3372 14.9083H6.65631L6.28598 16.8064L3.26849 12.9896H14.7103Z" fill="#09090B"/>
<path d="M20.7823 11.0546H9.32678L9.69985 9.13592H17.3807L17.7497 7.23645L20.7823 11.0546Z" fill="#09090B"/>
</g>
<defs>
<clipPath id="clip0_422:1326">
<rect width="24" height="23.9805" fill="white" transform="translate(0 0.0195312)"/>
</clipPath>
</defs>
</svg>
