<svg width="18" height="18" viewBox="0 0 18 18" fill="none" xmlns="http://www.w3.org/2000/svg">
<g clip-path="url(#clip0_580_16114)">
<path d="M9 18.0309C13.9706 18.0309 18 14.0015 18 9.03092C18 4.06035 13.9706 0.0309143 9 0.0309143C4.02944 0.0309143 0 4.06035 0 9.03092C0 14.0015 4.02944 18.0309 9 18.0309Z" fill="#F9F9F9"/>
<path d="M5.86618 8.53655H4.60124C4.60182 8.51658 4.60009 8.50251 4.60297 8.48873C4.77124 7.64642 4.92972 6.80384 5.11269 5.96182C5.24437 5.35499 5.93418 4.82243 6.55858 4.82214C8.65451 4.82102 10.7502 4.82158 12.8461 4.82158H12.9507L12.7037 6.06169H12.5741C10.6378 6.06169 8.70119 6.06169 6.7646 6.06169C6.47444 6.06169 6.33671 6.17309 6.2811 6.45302C6.15143 7.10374 6.02206 7.75445 5.8924 8.40517L5.86618 8.53655Z" fill="white"/>
<path d="M11.9658 9.78496H13.2316C13.2282 9.81647 13.2273 9.84432 13.2218 9.87217C13.0567 10.6965 12.9014 11.5208 12.7231 12.3448C12.5894 12.9623 11.9065 13.4985 11.2772 13.4991C9.17374 13.5008 7.07089 13.4996 4.96775 13.4996H4.88275L5.12969 12.2595H5.26512C7.19796 12.2595 9.13081 12.2595 11.0637 12.2595C11.3607 12.2595 11.495 12.1504 11.5523 11.8615C11.682 11.2107 11.8114 10.56 11.941 9.90931L11.9658 9.78496Z" fill="white"/>
<path d="M10.6934 9.78524L10.447 11.0222H5.3723L5.12854 12.2472L3.13086 9.78524H10.6934Z" fill="white"/>
<path d="M14.7023 8.53613H7.13889L7.38525 7.29856H12.4603L12.7043 6.07224L14.7023 8.53613Z" fill="white"/>
<path d="M8.91472 1.89886L8.82617 2.19984V10.9334L8.91472 11.0218L12.9688 8.62549L8.91472 1.89886Z" fill="#343434"/>
<path d="M8.91488 1.89886L4.86084 8.62549L8.91488 11.0219V6.78283V1.89886Z" fill="#8C8C8C"/>
<path d="M8.91464 11.7895L8.86475 11.8504V14.9615L8.91464 15.1072L12.9711 9.39441L8.91464 11.7895Z" fill="#3C3C3B"/>
<path d="M8.91488 15.1072V11.7895L4.86084 9.39441L8.91488 15.1072Z" fill="#8C8C8C"/>
<path d="M8.91504 11.0218L12.969 8.62547L8.91504 6.78281V11.0218Z" fill="#141414"/>
<path d="M4.86084 8.62547L8.91481 11.0218V6.78281L4.86084 8.62547Z" fill="#393939"/>
</g>
<defs>
<clipPath id="clip0_580_16114">
<rect width="18" height="18" fill="white"/>
</clipPath>
</defs>
</svg>
