<svg width="24" height="24" viewBox="0 0 24 24" fill="none" xmlns="http://www.w3.org/2000/svg">
<g clip-path="url(#clip0_580_6025)">
<path d="M12 24.0412C18.6274 24.0412 24 18.6686 24 12.0412C24 5.4138 18.6274 0.041214 12 0.041214C5.37258 0.041214 0 5.4138 0 12.0412C0 18.6686 5.37258 24.0412 12 24.0412Z" fill="#7378D8"/>
<path d="M7.8214 11.3821H6.13482C6.13559 11.3554 6.13329 11.3367 6.13713 11.3183C6.36149 10.1952 6.5728 9.07177 6.81676 7.94907C6.99233 7.13996 7.91207 6.42989 8.74461 6.42951C11.5392 6.42801 14.3334 6.42876 17.128 6.42876H17.2674L16.9382 8.08223H16.7653C14.1835 8.08223 11.6014 8.08223 9.0193 8.08223C8.63242 8.08223 8.44878 8.23078 8.37463 8.60401C8.20175 9.47163 8.02925 10.3393 7.85637 11.2069L7.8214 11.3821Z" fill="white"/>
<path d="M15.9543 13.0466H17.642C17.6374 13.0886 17.6362 13.1257 17.6289 13.1629C17.4088 14.2619 17.2017 15.361 16.9639 16.4597C16.7856 17.2831 15.8751 17.998 15.0361 17.9988C12.2315 18.001 9.42769 17.9995 6.62351 17.9995H6.51017L6.83942 16.346H7.01999C9.59712 16.346 12.1742 16.346 14.7514 16.346C15.1475 16.346 15.3265 16.2005 15.403 15.8153C15.5758 14.9476 15.7483 14.08 15.9212 13.2124L15.9543 13.0466Z" fill="white"/>
<path d="M14.2577 13.047L13.9292 14.6963H7.16291L6.83789 16.3295L4.17432 13.047H14.2577Z" fill="white"/>
<path d="M19.6029 11.3815H9.51836L9.84684 9.73139H16.6135L16.9389 8.0963L19.6029 11.3815Z" fill="white"/>
</g>
<defs>
<clipPath id="clip0_580_6025">
<rect width="24" height="24" fill="white"/>
</clipPath>
</defs>
</svg>
