<svg width="24" height="24" viewBox="0 0 24 24" fill="none" xmlns="http://www.w3.org/2000/svg">
<g clip-path="url(#clip0_580_6033)">
<path d="M12 24.0412C18.6274 24.0412 24 18.6686 24 12.0412C24 5.4138 18.6274 0.0412216 12 0.0412216C5.37258 0.0412216 0 5.4138 0 12.0412C0 18.6686 5.37258 24.0412 12 24.0412Z" fill="#A1F930"/>
<path fill-rule="evenodd" clip-rule="evenodd" d="M18.8475 6.95346C18.8501 6.93773 18.853 6.92023 18.8571 6.89963L18.7365 6.91219C18.2921 6.91219 17.8477 6.91079 17.4033 6.9094C16.5146 6.9066 15.6258 6.90381 14.737 6.91219C14.1767 6.9084 13.6228 7.02895 13.1171 7.26473C12.6115 7.50052 12.1674 7.84537 11.8182 8.27325C11.4347 8.72652 11.1732 9.26615 11.0576 9.84311H11.1653H17.9517C17.9679 9.84578 17.9844 9.84516 18.0002 9.84131C18.0161 9.83746 18.031 9.83045 18.044 9.82073C18.057 9.811 18.0678 9.79877 18.0757 9.7848C18.0836 9.77082 18.0885 9.7554 18.09 9.7395C18.2629 9.10072 18.4382 8.46195 18.6137 7.82262L18.6137 7.82254L18.6138 7.82207L18.6144 7.81989L18.6144 7.81985C18.6884 7.55038 18.7624 7.2808 18.8362 7.01109C18.8408 6.99298 18.8439 6.97487 18.8475 6.95346ZM5.36957 16.3406C5.29399 16.6169 5.22001 16.8916 5.14282 17.1805V17.1852H9.29345C9.41546 17.1863 9.53742 17.1795 9.6585 17.1648C11.0908 16.9796 12.1093 16.247 12.714 14.967C12.8143 14.7272 12.9018 14.4825 12.9761 14.2339H12.8282H6.07394C6.05512 14.2305 6.03579 14.2311 6.0172 14.2355C5.9986 14.2399 5.98117 14.248 5.96601 14.2594C5.95085 14.2708 5.93831 14.2852 5.9292 14.3016C5.92009 14.318 5.91462 14.3361 5.91313 14.3547C5.80856 14.7428 5.70233 15.1288 5.59575 15.516L5.59574 15.516L5.59574 15.516C5.52038 15.7898 5.44484 16.0643 5.36957 16.3406ZM12.9247 17.17L14.8367 10.2344C16.1233 10.7964 17.2232 12.3914 16.855 14.2093C16.6828 15.086 16.1881 15.8709 15.4642 16.4162C14.7402 16.9616 13.837 17.2297 12.9247 17.17ZM9.17607 13.8479L11.0801 6.92171C9.76465 6.77571 7.78662 7.57477 7.21895 9.61873C6.68665 11.534 7.82683 13.2592 9.17607 13.8479Z" fill="black"/>
</g>
<defs>
<clipPath id="clip0_580_6033">
<rect width="24" height="24" fill="white"/>
</clipPath>
</defs>
</svg>
