<svg xmlns="http://www.w3.org/2000/svg" width="95" height="27" viewBox="0 0 95 27">
  <g id="Group" transform="translate(0 27) rotate(180)">
    <path id="Path" d="M0,13.5C0,6.073-.018,0-.042,0S-4.975.924-5.576,1.047l-.312.061V11.02H-9.614v.906c0,.5-.018,1.788-.042,2.878l-.036,1.971h3.8v4.347H-8.082c-1.208,0-2.193.012-2.193.031,0,.067-.481,5.3-.511,5.559l-.036.288H0Z" fill="#fff"/>
    <path id="Path-2" data-name="Path" d="M-4.8,25.537l4.8-.4V.741L-.2.71C-.373.68-9.656-.006-9.843,0a18.121,18.121,0,0,0-.072,3.031V6.061h4.086v4.408H-9.314v5.265h3.605v3.49l-.138.024c-.072.018-.685.043-1.364.067s-1.562.049-1.971.073l-.733.037v6.533l.162-.006C-9.656,25.947-7.427,25.763-4.8,25.537Z" transform="translate(-85.085 0.673)" fill="#fff"/>
    <path id="Path-3" data-name="Path" d="M-7.9,22.652c-.06-.612-.745-9.839-.733-9.851s.889,2.2,1.965,4.91,1.971,4.959,1.995,5a36.335,36.335,0,0,0,4.417-.833L0,21.826V.777H-5.348l.03.441c.06.82.282,7.6.258,7.873-.018.239-.2-.178-1.9-4.378C-8,2.16-8.875.048-8.9.011a18.82,18.82,0,0,0-2.289.141C-12.42.262-13.43.36-13.43.366s.024,4.42.066,9.808.078,10.476.078,11.314L-13.28,23h5.414Z" transform="translate(-51.195 2.713)" fill="#fff"/>
    <path id="Shape" d="M-6.33,22.758c3.593-.245,5.57-2.749,6.195-7.831A52.6,52.6,0,0,0-.045,9.05C-.346,5-1.421,2.364-3.332,1.023A6.718,6.718,0,0,0-7.43.014,5.542,5.542,0,0,0-11.414,1.7a7.1,7.1,0,0,0-1.8,3.14A24.53,24.53,0,0,0-14,12.871c.163,3.452.673,5.6,1.725,7.249A5.592,5.592,0,0,0-7.832,22.74c.294.018.607.036.69.049l.067,0C-6.933,22.791-6.634,22.778-6.33,22.758Z" transform="translate(-10.465 2.583)" fill="#fff"/>
    <path id="Shape-2" data-name="Shape" d="M0,11.907V.758H-5.51l-.036.778c-.024.435-.073,1.842-.109,3.141S-5.738,7.113-5.763,7.2A20.375,20.375,0,0,1-6.845,3.715C-7.421,1.7-7.907.029-7.932,0c-.048-.055-5.684.4-5.745.459-.018.025.608,2.027,1.389,4.464l1.418,4.42-.3.269a7.465,7.465,0,0,0-2.055,4.3,13.646,13.646,0,0,0,.121,3.257,7.418,7.418,0,0,0,4.224,5.5c.884.33.811.324,4.988.348L0,23.05Z" transform="translate(-25.237 2.304)" fill="#fff"/>
    <path id="Path-4" data-name="Path" d="M0,19.255V16.408H-3.065V0H-8.833V15.429h-3.125v5.694l.132.024c.126.031,11.585.961,11.747.955A14.627,14.627,0,0,0,0,19.255Z" transform="translate(-38.637 3.184)" fill="#fff"/>
    <path id="Path-5" data-name="Path" d="M0,11.112V0H-5.949V22.224H0Z" transform="translate(-65.737 2.449)" fill="#fff"/>
    <path id="Path-6" data-name="Path" d="M-6.129,22.188c3.257-.178,5.967-.324,6.021-.324.1-.006.108-.184.108-2.884V16.1H-3.065V0H-8.893V16.776h-3.245v2.878c0,1.586.018,2.871.042,2.871S-9.386,22.371-6.129,22.188Z" transform="translate(-72.347 1.714)" fill="#fff"/>
  </g>
</svg>
