<svg xmlns="http://www.w3.org/2000/svg" width="47.493" height="34.541" viewBox="0 0 47.493 34.541">
  <path id="space-invaders" d="M13.953,8.318H9.635V4h4.318V8.318m21.588,0h4.318V4H35.54V8.318M48.493,21.27V34.223H44.176V25.588H39.858v8.635H35.54V29.905H13.953v4.318H9.635V25.588H5.318v8.635H1V21.27H5.318V16.953H9.635V12.635h4.318V8.318H18.27v4.318H31.223V8.318H35.54v4.318h4.318v4.318h4.318V21.27h4.318m-17.27-4.318V21.27H35.54V16.953H31.223M13.953,21.27H18.27V16.953H13.953V21.27m8.635,12.953H13.953V38.54h8.635V34.223m12.953,0H26.905V38.54H35.54Z" transform="translate(-1 -4)" fill="#fff"/>
</svg>
