<svg width="48" height="48" viewBox="0 0 48 48" fill="none"
    xmlns="http://www.w3.org/2000/svg">
    <g clip-path="url(#clip0_750_423)">
        <path d="M42 2C41.124 4.876 38.874 7.124 36 8C38.874 8.876 41.124 11.126 42 14C42.876 11.126 45.126 8.878 48 8C45.126 7.124 42.876 4.876 42 2ZM3.998 6C3.414 7.914 1.914 9.416 0 10C1.918 10.586 3.414 12.084 4.002 14C4.586 12.084 6.086 10.584 8 10C6.086 9.416 4.586 7.916 3.998 6ZM40.998 38C40.268 40.392 38.392 42.268 36 43C38.398 43.732 40.268 45.606 41.002 48C41.732 45.606 43.608 43.732 46 43C43.608 42.272 41.732 40.394 40.998 38ZM22 0C21.416 1.916 19.916 3.416 18 4C19.918 4.586 21.416 6.084 22.004 8C22.588 6.084 24.088 4.584 26 4C24.088 3.416 22.588 1.916 22 0ZM5.998 36C5.128 38.872 2.872 41.122 0 42C2.878 42.878 5.128 45.128 6 48C6.878 45.128 9.128 42.878 11.998 42C9.128 41.126 6.878 38.872 5.998 36ZM34.124 12H14.016L4 23.25L24 48L44 23.39L34.124 12ZM15.336 24L21.414 38.436L9.75 24H15.336ZM30.494 24L24 39.422L17.506 24H30.494ZM18.414 22L24 16.414L29.586 22H18.414ZM32.664 24H38.35L26.552 38.518L32.664 24ZM37.5 22H32.414L26.414 16H32.298L37.5 22ZM15.808 16H21.586L15.586 22H10.468L15.808 16Z" fill="currentColor"/>
    </g>
    <defs>
        <clipPath id="clip0_750_423">
            <rect width="48" height="48" fill="currentColor"/>
        </clipPath>
    </defs>
</svg>
