<svg width="48" height="48" viewBox="0 0 48 48" fill="none"
    xmlns="http://www.w3.org/2000/svg">
    <path d="M12 4L14.344 4.406C13.632 8.896 15.926 9.444 19.738 10.154C22.676 10.7 26 11.398 26 16.722V18H23.634V16.722C23.634 13.61 22.676 13.104 19.308 12.478C14.14 11.518 11.114 9.696 12 4ZM11.648 24C7.432 24 4 27.588 4 32C4 36.412 7.432 40 11.65 40C13.506 40 15.3 39.292 16.698 38.002C18.728 36.136 21.344 35.108 24.066 35.108C26.74 35.108 29.288 36.118 31.244 37.954C32.652 39.272 34.466 40 36.35 40C40.568 40 44 36.412 44 32C44 27.698 40.796 24.188 36.696 24H11.648ZM11.65 20L36.776 20.014C43.012 20.246 48 25.524 48 32C48 38.624 42.786 44 36.35 44C33.328 44 30.578 42.81 28.508 40.87C27.234 39.676 25.65 39.108 24.066 39.108C22.39 39.108 20.714 39.744 19.408 40.946C17.348 42.842 14.63 44 11.65 44C5.214 44 0 38.624 0 32C0 25.376 5.214 20 11.65 20ZM18 30H14V26H10V30H6V34H10V38H14V34H18V30ZM26 32H22V34H26V32ZM34 28C34 29.104 34.894 30 36 30C37.106 30 38 29.104 38 28C38 26.896 37.106 26 36 26C34.894 26 34 26.896 34 28ZM34 32C34 30.896 33.106 30 32 30C30.894 30 30 30.896 30 32C30 33.104 30.894 34 32 34C33.106 34 34 33.104 34 32ZM38 36C38 34.896 37.106 34 36 34C34.894 34 34 34.896 34 36C34 37.104 34.894 38 36 38C37.106 38 38 37.104 38 36ZM42 32C42 30.896 41.106 30 40 30C38.894 30 38 30.896 38 32C38 33.104 38.894 34 40 34C41.106 34 42 33.104 42 32Z" fill="currentColor"/>
</svg>
